<?xml version="1.0" encoding="utf-8"?>
<!-- Generator: Adobe Illustrator 24.3.0, SVG Export Plug-In . SVG Version: 6.00 Build 0)  -->
<svg version="1.1" id="Layer_1" xmlns="http://www.w3.org/2000/svg" xmlns:xlink="http://www.w3.org/1999/xlink" x="0px" y="0px"
	 viewBox="0 0 800 800" style="enable-background:new 0 0 800 800;" xml:space="preserve">
<style type="text/css">
	.st0{fill:#379777;}
	.st1{fill:#F5F7F8;}
	.st2{fill:#45474B;}
</style>
<circle class="st0" cx="400" cy="400" r="400"/>
<path class="st1" d="M478.3,477.6c48-27.2,80.3-78.9,80.3-138c0-87.7-71-158.7-158.7-158.7s-158.6,71-158.6,158.6
	c0,59.2,32.4,110.7,80.3,138C222,502.8,141.3,574.8,103.9,669c73.2,80.5,178.7,131,296.1,131s222.8-50.6,296.1-131
	C658.7,574.8,578,502.8,478.3,477.6z"/>
<path class="st2" d="M632.4,287.1h-24.9C584.1,194.3,500,125.4,400,125.4s-184.1,68.8-207.6,161.7h-24.9c-8.5,0-15.4,6.9-15.4,15.4
	V378c0,8.5,6.9,15.4,15.4,15.4h31.5c9.6,0,17-8.7,15.3-18c-3.1-16.4-4.3-33.5-2.8-51.2c7.6-93.4,84.4-168.3,178.1-173.4
	c109-6,199.7,81.1,199.7,188.8c0,12.3-1.3,24.1-3.5,35.7c-1.9,9.4,5.7,18.1,15.1,18.1h2.8c-6.6,20.5-23.5,58.6-60.3,79.1
	c-30.9,17.2-69.8,18.7-115.6,4.4c-2.4-10.6-14-23-26-28.8c-15.4-7.7-25-1.3-30.6,9.8c-5.5,11-4.7,22.5,10.6,30.2
	c13.5,6.8,34,8.2,42.5,0.8c21.9,6.8,42.4,10.2,61.4,10.2c23.6,0,44.9-5.2,63.6-15.7c43.3-24.1,61.1-68.8,67.4-90.1h15.6
	c8.5,0,15.4-6.9,15.4-15.4v-75.4C647.9,294,640.9,287.1,632.4,287.1z"/>
</svg>
