<?xml version="1.0" encoding="utf-8"?>
<!-- Generator: Adobe Illustrator 24.3.0, SVG Export Plug-In . SVG Version: 6.00 Build 0)  -->
<svg version="1.1" id="Layer_1" xmlns="http://www.w3.org/2000/svg" xmlns:xlink="http://www.w3.org/1999/xlink" x="0px" y="0px"
	 viewBox="0 0 951.2 632.2" style="enable-background:new 0 0 951.2 632.2;" xml:space="preserve">
<style type="text/css">
	.st0{fill:#F0F0F0;}
	.st1{fill:#FFFFFF;}
	.st2{fill:#3F3D56;}
	.st3{fill:#E5E5E5;}
	.st4{fill:#9E616A;}
	.st5{fill:#2F2E41;}
	.st6{opacity:0.2;enable-background:new    ;}
	.st7{fill:#3B82F6;}
</style>
<path class="st0" d="M341.2,363.8c32.6-57.3,94.8-101.4,160.6-97.1c-48.6,52.8-76.9,121.1-79.9,192.7c-1.1,27.6,0.6,58.5-17.8,79.2
	c-11.4,12.9-28.9,19.1-46,20.4c-17.2,1.3-34.3-1.8-51.3-4.9l-4.1,1.3C301.2,489.5,308.6,421.2,341.2,363.8z"/>
<path class="st1" d="M501.9,268.1c-48.7,23.4-90.2,62.6-115.7,110.3c-5.5,10.3-10.2,21.3-12.2,32.8c-2,11.6-0.6,22.6,3.3,33.6
	c3.6,10.1,8.5,19.9,9.6,30.7c1.2,11.3-3,21.9-10.5,30.4c-9.2,10.3-21.5,16.7-33.8,22.5c-13.6,6.5-27.9,13-37.6,25
	c-1.2,1.5-3.4-0.4-2.2-1.9c16.8-21,45.6-24.9,65.5-41.8c9.3-7.9,16.3-18.6,15.9-31.2c-0.4-11-5.4-21.2-9.1-31.3
	c-3.9-10.7-5.9-21.4-4.5-32.7c1.4-11.6,5.7-22.8,10.9-33.2c11.8-23.5,27.9-45.1,46.3-63.7c21.2-21.4,45.9-39.1,73.1-52.2
	C502.7,264.5,503.6,267.3,501.9,268.1L501.9,268.1z"/>
<path class="st1" d="M393.7,362.4c-15.4-11.3-20.4-32-11.8-49.1c0.9-1.7,3.5-0.4,2.6,1.2c-8.1,15.9-3.4,35.2,11,45.6
	C397.1,361.3,395.2,363.5,393.7,362.4z"/>
<path class="st1" d="M374.8,439.9c18.7-2.7,35.7-12.4,47.6-27.1c1.2-1.5,3.4,0.4,2.2,1.9c-12.4,15.3-30.1,25.3-49.5,28.1
	C373.2,443.1,373,440.2,374.8,439.9L374.8,439.9z"/>
<path class="st1" d="M450.5,299.6c5,5.5,12.4,8.2,19.7,7c1.9-0.3,2.1,2.6,0.2,2.9c-8.1,1.2-16.3-1.7-21.8-7.7
	c-0.6-0.5-0.6-1.4-0.2-2.1C449,299.2,449.9,299.1,450.5,299.6L450.5,299.6z"/>
<path class="st0" d="M632.8,447.6c-1.2,0.2-2.3,0.4-3.5,0.7c-15.5,2.9-30.6,7.1-45.4,12.6c-1.1,0.4-2.3,0.8-3.4,1.3
	c-35.5,13.4-68.1,33.3-96.3,58.6c-11.2,10.1-21.6,21-31.2,32.7c-13.2,16.1-26.2,34.7-43.5,45.2c-1.8,1.1-3.6,2.1-5.6,3l-99.3-41.2
	c-0.2-0.2-0.4-0.4-0.5-0.6l-4-1.5c0.5-0.6,0.9-1.3,1.4-1.9c0.3-0.4,0.5-0.7,0.8-1.1c0.2-0.2,0.4-0.5,0.5-0.7
	c0.1-0.1,0.1-0.2,0.2-0.2c0.1-0.2,0.3-0.4,0.5-0.6c2.7-3.6,5.4-7.3,8.1-10.9c0,0,0,0,0,0c21-27.5,44.4-53.5,71-75.2
	c0.8-0.7,1.6-1.3,2.5-2c12.1-9.7,24.9-18.4,38.4-26c7.4-4.1,15-7.9,22.8-11.3c20.1-8.7,41.4-14.1,63.2-16.1
	c43.4-4,87.7,5.9,121,33.2C631.1,446.2,631.9,446.9,632.8,447.6z"/>
<path class="st1" d="M632,448.8c-53-10.6-109.7-4.3-158.8,18.4c-10.6,4.9-20.9,10.8-29.5,18.8c-8.6,8-14.1,17.7-17.6,28.8
	c-3.2,10.2-5.2,21-10.8,30.3c-5.9,9.8-15.6,15.7-26.7,17.9c-13.5,2.7-27.2,0.4-40.5-2.4c-14.8-3.1-30.1-6.5-45.1-2.6
	c-1.8,0.5-2.4-2.4-0.6-2.8c26.1-6.6,51.4,7.5,77.5,6.1c12.2-0.7,24.2-5.1,31.5-15.4c6.3-9,8.4-20.2,11.6-30.5
	c3.3-10.9,8.2-20.6,16.1-28.8c8.2-8.4,18.3-14.7,28.7-19.9c23.5-11.7,49.4-19.2,75.4-23c29.8-4.3,60.2-3.5,89.8,2.4
	C634.8,446.4,633.9,449.1,632,448.8L632,448.8z"/>
<path class="st1" d="M488.8,458.9c-5.5-18.3,3-37.9,20.2-46.3c1.7-0.8,3,1.8,1.3,2.6c-16,7.8-23.9,26.1-18.7,43.1
	C492.2,460.1,489.4,460.7,488.8,458.9L488.8,458.9z"/>
<path class="st1" d="M427.1,509.5c16.6,9.1,36,11.6,54.3,7c1.8-0.5,2.4,2.4,0.6,2.8c-19.1,4.7-39.3,2.1-56.5-7.4
	C423.9,511,425.5,508.6,427.1,509.5z"/>
<path class="st1" d="M572,443c0.7,7.4,5,14,11.5,17.5c1.7,0.9,0.1,3.3-1.6,2.4c-7.2-3.9-12-11.2-12.8-19.3c-0.1-0.8,0.3-1.5,1.1-1.7
	C571.1,441.7,571.8,442.2,572,443L572,443z"/>
<path class="st2" d="M443.6,515.6c-13.9-67.3-31.3-89.7-31.3-89.7l-6.6-5.2l-8-6.2l0-0.8l-1.9-0.6l-0.4-0.3l-0.7-0.6l-0.1,0.1
	l-0.2,0.3l-36.2-12.3l-45.9-15.6L291,357.1c-7-9.1-17.9-14.4-29.4-14.3l-67.8,0.5c-9.2,0.1-18,3.6-24.7,9.8l-44.6,41.4L55,427.6
	l-0.1-0.1l-0.7,0.5l-10.7,5.1l0.4,2.3l-6.6,4.8c0,0-17.4,20.9-31.3,83.5c-3.5,15.9-5.3,50.1-5.9,92.2c-0.1,8.9,7,16.2,15.8,16.3
	c0.1,0,0.2,0,0.2,0h371v0h46.3c8.9,0,16.1-7.2,16.1-16.1c0-0.1,0-0.1,0-0.2C448.9,570.1,447.1,532.8,443.6,515.6z"/>
<path class="st3" d="M491.2,58.7c-30.1,0-54.4,24.3-54.5,54.4c0,30.1,24.3,54.4,54.4,54.5c0,0,0,0,0,0h405.6
	c30.1,0,54.4-24.4,54.4-54.5c0-30-24.4-54.4-54.4-54.4H491.2z"/>
<path class="st1" d="M491.2,69.7c-24,0-43.4,19.4-43.4,43.4s19.4,43.4,43.4,43.4c0,0,0,0,0,0h405.6c24,0,43.4-19.4,43.4-43.4
	c0-24-19.4-43.4-43.4-43.4H491.2z"/>
<circle id="e096411a-cdc3-4e6d-bbd4-4630e1fee17e" class="st4" cx="238.3" cy="228.4" r="88.9"/>
<path class="st5" d="M215.6,312.9c-0.4-0.8-0.8-1.7-1.1-2.5c0.1,0,0.3,0,0.4,0L215.6,312.9z"/>
<path class="st5" d="M147,143.6c4.5-3.6,9.7-6.9,15.5-6.7c5.7,0.2,11.6,5.4,10.4,11c21.8-38.6,68.1-55.9,109.9-41.2
	c14.3,5,28.3,15.1,31.6,29.9c0.8,3.8,1,8,3.4,11c3,3.9,8.7,4.8,13.4,3.4c0,0,0.1,0,0.1,0c2.2-0.7,4.6,0.4,5.3,2.6
	c0.4,1.1,0.3,2.3-0.3,3.3l-4,7.5c5.1,1.1,10.4,1,15.4-0.3c2.2-0.6,4.5,0.8,5.1,3c0.3,1.2,0.1,2.5-0.7,3.5
	c-13.3,18.3-35.6,30.1-58.3,30c-16.1-0.1-32.5-5.7-48.2-2c-22.5,5.3-36.4,27.9-31.1,50.3c0.7,2.9,1.7,5.7,3,8.4
	c-4.8-5.3-14.2-4-19.1,1.1c-4.9,5.2-6.2,12.9-5.7,20c0.8,10.9,5,21.2,9.5,31.2c-37.8-1.2-73.6-27.7-85.6-63.6
	C104.6,210.2,117.3,167.3,147,143.6z"/>
<polygon class="st6" points="87.5,495.3 112.4,630.9 127.3,632.2 "/>
<polygon class="st6" points="362,485 337.1,630.8 322.1,632.2 "/>
<path class="st7" d="M168.2,97.9c-4.8,2-9.8-0.2-11.9-5.2c-2.1-5.1-0.1-10.2,4.7-12.3c4.9-2,9.8,0.2,11.9,5.3
	C175.1,90.9,173.2,95.9,168.2,97.9z M159.1,70.5l-3.8,1.6c-2,0.8-4.2,0-5.2-1.9l-0.2-0.4c-4.1-7.4-4.6-16.3-1.4-26.6
	c2.9-9.2,4.2-15.7,1.7-21.6c-2.8-6.8-8.9-8.9-16.6-5.8c-3,1.3-4,1.2-6.3,3.6c-1,1-2.5,1.6-3.9,1.6c-1.4,0-2.8-0.6-3.7-1.6
	c-1.9-2-1.9-5.2,0-7.3c4-4.2,8.7-7.4,14-9.6c16.6-6.9,25,3.3,28.8,12.5c3.7,9,1.6,17.3-1.7,28c-2.8,8.9-2.7,15.6,0.6,22.2
	c1,2,0.1,4.5-2,5.4C159.2,70.4,159.1,70.4,159.1,70.5L159.1,70.5z"/>
<path class="st7" d="M580.8,139.1h-80.7c-1.1,0-1.9-0.9-2-1.9c0-1.1,0.9-1.9,1.9-2c0,0,0,0,0,0h80.7c1.1,0,1.9,0.9,1.9,2
	C582.7,138.2,581.8,139,580.8,139.1z"/>
<path class="st7" d="M683.1,139.7h-80.7c-1.1,0-1.9-0.9-2-1.9c0-1.1,0.9-1.9,1.9-2c0,0,0,0,0,0h80.7c1.1,0,1.9,0.9,2,1.9
	C685.1,138.8,684.2,139.7,683.1,139.7C683.2,139.7,683.2,139.7,683.1,139.7L683.1,139.7z"/>
<path class="st7" d="M785.5,140.3h-80.7c-1.1,0-1.9-0.9-1.9-2c0-1.1,0.9-1.9,1.9-1.9h80.7c1.1,0,1.9,0.9,2,1.9
	C787.5,139.5,786.6,140.3,785.5,140.3C785.5,140.3,785.5,140.3,785.5,140.3L785.5,140.3z"/>
<path class="st7" d="M887.9,141h-80.7c-1.1,0-1.9-0.9-1.9-2c0-1.1,0.9-1.9,1.9-1.9h80.7c1.1,0,1.9,0.9,1.9,2
	C889.8,140.1,889,141,887.9,141L887.9,141z"/>
<circle class="st7" cx="540.2" cy="106.2" r="15"/>
<circle class="st7" cx="643.2" cy="106.2" r="15"/>
<circle class="st7" cx="746.2" cy="106.2" r="15"/>
<circle class="st7" cx="849.2" cy="106.2" r="15"/>
</svg>
