<?xml version="1.0" encoding="utf-8"?>
<!-- Generator: Adobe Illustrator 24.3.0, SVG Export Plug-In . SVG Version: 6.00 Build 0)  -->
<svg version="1.1" id="Layer_1" xmlns="http://www.w3.org/2000/svg" xmlns:xlink="http://www.w3.org/1999/xlink" x="0px" y="0px"
	 viewBox="0 0 1061 507.4" style="enable-background:new 0 0 1061 507.4;" xml:space="preserve">
<style type="text/css">
	.st0{fill:#3F3D56;}
	.st1{fill:#E6E6E6;}
	.st2{fill:#FFFFFF;}
	.st3{fill:#3B82F6;}
	.st4{fill:#E5E5E5;}
	.st5{fill:#A0616A;}
	.st6{opacity:0.1;enable-background:new    ;}
	.st7{fill:#2F2E41;}
</style>
<path id="f8c762bc-b7e7-4c8e-b73e-f411c620c2bd-132" class="st0" d="M828.8,76.2H568.6v-5.4h-118v5.4H189.4
	c-9.7,0-17.6,7.9-17.6,17.6l0,0l0,0V450c0,9.7,7.9,17.6,17.6,17.6h639.4c9.7,0,17.6-7.9,17.6-17.6V93.8
	C846.4,84.1,838.5,76.2,828.8,76.2z"/>
<rect id="febd0196-f53d-4e2b-8506-d3dc9ab4b723" x="195.4" y="107.3" class="st1" width="627.4" height="353.9"/>
<rect id="a687e43e-dc25-402c-aff7-aaf80cd82cec" x="222" y="126" class="st2" width="574.4" height="305.9"/>
<circle id="fb392c0f-c18b-4dca-9f8d-a13ba02e8cd8" class="st3" cx="508.6" cy="91.2" r="6.4"/>
<path id="a3b325e1-b438-4eea-a78d-99975bd1014d-133" class="st0" d="M864,454.8h-61.2v-4.4c0-0.5-0.4-0.9-0.9-0.9l0,0h-21
	c-0.5,0-0.9,0.4-0.9,0.9l0,0l0,0v4.4h-13.1v-4.4c0-0.5-0.4-0.9-0.9-0.9l0,0h-21c-0.5,0-0.9,0.4-0.9,0.9l0,0l0,0v4.4H731v-4.4
	c0-0.5-0.4-0.9-0.9-0.9l0,0h-21c-0.5,0-0.9,0.4-0.9,0.9l0,0l0,0v4.4h-13.1v-4.4c0-0.5-0.4-0.9-0.9-0.9l0,0h-21
	c-0.5,0-0.9,0.4-0.9,0.9l0,0l0,0v4.4h-13.1v-4.4c0-0.5-0.4-0.9-0.9-0.9l0,0h-21c-0.5,0-0.9,0.4-0.9,0.9l0,0l0,0v4.4h-13.1v-4.4
	c0-0.5-0.4-0.9-0.9-0.9l0,0h-21c-0.5,0-0.9,0.4-0.9,0.9l0,0l0,0v4.4h-13.1v-4.4c0-0.5-0.4-0.9-0.9-0.9l0,0H422.3
	c-0.5,0-0.9,0.4-0.9,0.9l0,0l0,0v4.4h-13.1v-4.4c0-0.5-0.4-0.9-0.9-0.9l0,0h-21c-0.5,0-0.9,0.4-0.9,0.9l0,0l0,0v4.4h-13.1v-4.4
	c0-0.5-0.4-0.9-0.9-0.9l0,0h-21c-0.5,0-0.9,0.4-0.9,0.9l0,0l0,0v4.4h-13.1v-4.4c0-0.5-0.4-0.9-0.9-0.9l0,0h-21
	c-0.5,0-0.9,0.4-0.9,0.9l0,0l0,0v4.4h-13.1v-4.4c0-0.5-0.4-0.9-0.9-0.9l0,0h-21c-0.5,0-0.9,0.4-0.9,0.9l0,0l0,0v4.4h-13.1v-4.4
	c0-0.5-0.4-0.9-0.9-0.9l0,0h-21c-0.5,0-0.9,0.4-0.9,0.9l0,0l0,0v4.4H229v-4.4c0-0.5-0.4-0.9-0.9-0.9l0,0h-21c-0.5,0-0.9,0.4-0.9,0.9
	l0,0l0,0v4.4H166c-11.6,0-21,9.4-21,21v9.5c0,11.6,9.4,21,21,21h698c11.6,0,21-9.4,21-21v-9.5C885,464.2,875.6,454.8,864,454.8
	L864,454.8z"/>
<rect id="e8772b6c-5a9b-4fa1-81c9-662ac65893c6" x="382.2" y="147.5" class="st1" width="254" height="267"/>
<rect id="a87049f2-d9c9-408d-98dd-ac42069ee321" y="505.4" class="st1" width="1061" height="2"/>
<path id="b307d008-1640-4a06-af2e-4466e39d32c3-134" class="st3" d="M958,435.5c14.4,15.4,15.1,38.1,15.1,38.1s-22.6-2.3-36.9-17.8
	s-15.2-38-15.2-38S943.6,420.1,958,435.5z"/>
<path id="e6bb151c-e5ac-48bf-b05a-35e8b71544cc-135" class="st3" d="M1003.2,459.6c-15.4,14.4-38.1,15.1-38.1,15.1
	s2.3-22.6,17.8-36.9s38.1-15.1,38.1-15.1S1018.6,445.2,1003.2,459.6z"/>
<path id="e2659c84-c871-46e0-a841-faed920e56d0-136" class="st4" d="M999.4,505.4h-56.7c-2.2,0-4.2-1.3-5.2-3.3l-12.4-25.4
	c-1.4-2.9-0.2-6.4,2.7-7.8c0.8-0.4,1.7-0.6,2.5-0.6h81.4c3.2,0,5.8,2.6,5.8,5.8c0,0.9-0.2,1.8-0.6,2.5l-12.4,25.4
	C1003.6,504.1,1001.6,505.4,999.4,505.4L999.4,505.4z"/>
<path id="b4ca1fea-0850-4eee-815e-097d11075e0d-137" class="st3" d="M61,435.5c14.4,15.4,15.1,38.1,15.1,38.1s-22.6-2.3-36.9-17.8
	s-15.2-38-15.2-38S46.6,420.1,61,435.5z"/>
<path id="f6595469-42b3-4592-aaf8-acdcc6d1b7a1-138" class="st4" d="M93.4,505.4H36.6c-2.2,0-4.2-1.3-5.2-3.3L19,476.7
	c-1.4-2.9-0.2-6.4,2.7-7.8c0.8-0.4,1.7-0.6,2.5-0.6h81.4c3.2,0,5.8,2.6,5.8,5.8c0,0.9-0.2,1.8-0.6,2.5L98.4,502
	C97.6,504.1,95.6,505.4,93.4,505.4L93.4,505.4z"/>
<ellipse id="b9fa2d1d-eaff-4f39-9574-6fdb852a47dd" transform="matrix(0.3827 -0.9239 0.9239 0.3827 158.3972 615.6003)" class="st5" cx="539.9" cy="189.3" rx="33.8" ry="33.8"/>
<path id="a3ede095-a03b-477f-a348-b0bb518c525f-139" class="st3" d="M462.2,415.1L484,277.8c4.5-28.4,31.2-47.7,59.6-43.2
	c2.2,0.3,4.3,0.8,6.4,1.4l0,0c25.7,7.4,41.5,33.2,36.6,59.5l-22.8,122.6L462.2,415.1z"/>
<path id="a14f3686-8e71-4892-a260-94847064fbe5-140" class="st5" d="M549.2,439.6c6.4-4.2,8.1-12.8,3.9-19.1c-0.4-0.7-1-1.3-1.5-1.9
	l22.5-43.6l-25.4,2.7l-17.5,41c-5.2,5.7-4.8,14.5,0.9,19.6C536.8,442.6,543.9,443.2,549.2,439.6L549.2,439.6z"/>
<path id="aefe090c-eadc-4acf-b060-d0ae14889076-141" class="st3" d="M554,410.9c-1.2-0.2-2.4-0.7-3.3-1.6l-8.6-8
	c-1.9-1.8-2.5-4.5-1.5-6.9l17.2-40.8l-2.4-80.7c1.5-10.9,11.5-18.5,22.4-17.1c10.9,1.5,18.5,11.5,17.1,22.4l0,0l0,0l4.2,50.7
	c1.3,15.4-3.1,30.7-12.3,43.2l-26.9,36.3c-1,1.4-2.6,2.3-4.4,2.5C555,410.9,554.5,410.9,554,410.9z"/>
<path id="b24d83c7-6fd4-4d89-b0e2-e143511102b2-142" class="st5" d="M345.5,170.9c1.4,7.5,8.6,12.5,16.1,11.1
	c0.8-0.1,1.6-0.4,2.3-0.7l31.4,37.8l7.4-24.4l-31-32.1c-3.2-7-11.4-10.1-18.4-6.9C347.5,158.4,344.3,164.7,345.5,170.9L345.5,170.9z
	"/>
<path id="a479cb15-9c48-424e-90d4-4868fd6ffd90-143" class="st3" d="M370.1,186.6c0.6-1.1,1.6-1.9,2.8-2.5l10.7-4.8
	c2.4-1.1,5.2-0.5,7,1.3l30.9,31.8l75.3,29.2c9.5,5.6,12.6,17.8,7,27.3s-17.8,12.6-27.3,7l0,0l0,0L428,260
	c-14.7-4.8-27.1-14.8-34.9-28.1l-23-38.9c-0.9-1.5-1.1-3.3-0.6-5C369.6,187.4,369.8,187,370.1,186.6L370.1,186.6z"/>
<path id="fbb91ec3-afe3-4815-be57-4aca5997223d-144" class="st6" d="M567.2,306.4l-1.4,44l-25.3,44l21.1-49L567.2,306.4z"/>
<path id="b3c0f84b-28f9-45ec-afed-9c3bdf0aec76-145" class="st7" d="M517,172.4c3.5,4.1,9.4,5.3,14.8,5.8c11,1,27.1-0.6,37.9-3.1
	c0.8,7.5-1.3,15.5,3.1,21.6c2.1-7.4,3.3-15.1,3.6-22.8c0.1-3.3,0.1-6.7-1.3-9.8s-4.3-5.6-7.6-5.6c2.5-1.9,5.4-3.2,8.5-3.7l-10.7-5.4
	l2.7-2.8l-19.3-1.2l5.6-3.6c-8.4-1.2-17-1.4-25.4-0.8c-3.9,0.3-8.1,0.8-11.3,3.1s-5,6.8-3.1,10.2c-5,0.8-9.3,4.2-11.3,8.9
	c-1.4,3.6-1.3,7.6-0.9,11.5c0.7,6.1,2.2,12.2,4.3,18"/>
<path id="a138b9cb-cdfc-4f68-9e32-04b91bb430b4-146" class="st2" d="M661.3,87.8l-307.6,71c-3.1,0.7-6.3-1.2-7-4.4l-17.6-76.3
	c-0.7-3.1,1.2-6.3,4.4-7l307.6-71c3.1-0.7,6.3,1.2,7,4.4l17.6,76.3C666.4,84,664.4,87.1,661.3,87.8z"/>
<path id="ae469d8c-20b4-445b-a76f-3c35ff3d2f47-147" class="st1" d="M661.3,87.8l-307.6,71c-3.1,0.7-6.3-1.2-7-4.4l-17.6-76.3
	c-0.7-3.1,1.2-6.3,4.4-7l307.6-71c3.1-0.7,6.3,1.2,7,4.4l17.6,76.3C666.4,84,664.4,87.1,661.3,87.8z M334,73.4
	c-1.9,0.4-3.1,2.3-2.6,4.2L349,154c0.4,1.9,2.3,3.1,4.2,2.6l307.6-71c1.9-0.4,3.1-2.3,2.6-4.2L645.8,5.1c-0.4-1.9-2.3-3.1-4.2-2.6
	L334,73.4z"/>
<path id="b1e356c5-36d3-4e1f-8361-52645d018384-148" class="st1" d="M440.7,73.2c-2.1,0.5-3.5,2.6-3,4.8c0.5,2.1,2.6,3.5,4.8,3l0,0
	l0,0l182.3-42.1c2.1-0.5,3.5-2.6,3-4.8c-0.5-2.1-2.6-3.5-4.8-3L440.7,73.2z"/>
<path id="f47b3ab2-4a63-40b6-b578-ee0e1882dc1b-149" class="st1" d="M446.1,96.4c-2.1,0.5-3.5,2.6-3,4.8c0.5,2.1,2.6,3.5,4.8,3l0,0
	l0,0L526.3,86c2.1-0.5,3.5-2.6,3-4.8c-0.5-2.1-2.6-3.5-4.8-3l0,0L446.1,96.4z"/>
<g id="ebccd953-b296-4a3a-b6cb-ab9b47d83c6a">
	<circle id="f502afc0-c552-46f8-b839-9472032a2f9d" class="st3" cx="390.9" cy="100.8" r="23.8"/>
	<path id="e70683fc-6315-4eed-926a-207d48de8bbe-150" class="st2" d="M390.2,114.6c-0.8,0.2-1.6,0.1-2.3-0.2l0,0l-9.6-4.4
		c-1.9-0.8-2.7-3.1-1.8-4.9c0.8-1.9,3.1-2.7,4.9-1.8l6.2,2.8l8.7-19.1c0.8-1.9,3.1-2.7,4.9-1.8l0,0l-0.1,0.1l0.1-0.1
		c1.9,0.9,2.7,3.1,1.8,4.9l-10.2,22.5C392.3,113.5,391.3,114.3,390.2,114.6L390.2,114.6z"/>
</g>
</svg>
